<?xml version="1.0" encoding="UTF-8"?>
<svg id="Layer_5" data-name="Layer 5" xmlns="http://www.w3.org/2000/svg" viewBox="0 0 520.98 740.52">
  <defs>
    <style>
      .cls-1 {
        fill: #fff;
      
      }

      .cls-2 {
        fill: #020202;
        
      }
    </style>
  </defs>
  <g>
    <path class="cls-1" d="M260.49,40.26c121.44,0,220.24,94.49,220.24,210.64,0,48.99-17.99,96.71-50.59,134.31-7.8,8.93-71.75,84.2-82.87,164.36H169.28c-8.27-32.88-30.68-108.46-71.9-157.11l-.69-.77c-36.4-38.71-56.44-88.71-56.44-140.79,0-116.15,98.8-210.64,220.24-210.64Z"/>
    <path class="cls-2" d="M40.25,250.9c0,52.08,20.04,102.08,56.44,140.79l.69,.77c41.22,48.65,63.63,124.23,71.9,157.11h177.99c11.12-80.16,75.07-155.43,82.87-164.36,32.6-37.6,50.59-85.32,50.59-134.31,0-116.15-98.8-210.64-220.24-210.64S40.25,134.75,40.25,250.9Zm480.48-.01c0,58.62-21.46,115.65-60.43,160.58-3.02,3.47-72.95,84.31-74.65,158.55l-.45,19.54H137.03l-3.24-16.04c-.2-.99-20.79-100.41-66.61-154.83C24.02,372.59,.25,313.02,.25,250.89,.25,183.79,27.42,120.75,76.76,73.38,125.88,26.22,191.13,.25,260.49,.25s134.61,25.97,183.73,73.13c24.67,23.68,43.8,51.28,56.76,81.35,12.96,30.07,19.75,62.61,19.75,96.16Z"/>
  </g>
  <g>
    <path d="M153.31,594.07c-6.83,2.32-11.53,6.36-14.73,12.77-6.59,13.01-1.13,28.4,12.36,34.81l3.92,1.84,104.98,.18c69.99,.08,106.23-.3,108.72-1.13,11.88-3.98,19.31-16.16,17.29-28.22-1.49-8.56-6.95-15.68-14.85-19.43l-4.04-1.9-104.86-.12-104.86-.18-3.92,1.37h0Z"/>
    <path d="M177.08,651.7c-7.13,2.97-11.29,6.83-14.38,13.37-1.78,3.74-1.9,4.4-1.9,10.52s.12,6.77,1.9,10.57c2.26,4.69,6.77,9.68,10.75,11.88,6.48,3.51,2.73,3.39,87.81,3.39,48.18,0,79.07-.24,80.98-.59,4.75-.89,9.57-3.45,13.19-7.07,3.74-3.8,5.94-7.96,7.31-14.08,.89-4.04,.89-4.52-.18-8.73-2.32-9.03-6.65-14.67-14.14-18.36l-4.04-1.96-81.99-.12-81.99-.18-3.33,1.37h0Z"/>
    <path d="M214.33,708.67c1.13,3.74,5.7,10.63,9.98,15.21,8.32,8.79,18.71,13.96,32.85,16.16,4.28,.71,5.53,.65,10.99-.3,9.57-1.66,16.4-4.28,23.05-8.79,3.98-2.73,9.92-8.56,12.77-12.59,2.55-3.62,5.64-9.27,5.64-10.4,0-.42-15.33-.59-47.88-.59h-47.83l.42,1.31h.01Z"/>
  </g>
</svg>